<!DOCTYPE svg PUBLIC "-//W3C//DTD SVG 1.1//EN" "http://www.w3.org/Graphics/SVG/1.1/DTD/svg11.dtd">
<!-- Uploaded to: SVG Repo, www.svgrepo.com, Transformed by: SVG Repo Mixer Tools -->
<svg width="800px" height="800px" viewBox="0 0 24 24" xmlns="http://www.w3.org/2000/svg" fill="#ffffff">
<g id="SVGRepo_bgCarrier" stroke-width="0"/>
<g id="SVGRepo_tracerCarrier" stroke-linecap="round" stroke-linejoin="round"/>
<g id="SVGRepo_iconCarrier"> <g> <path fill="none" d="M0 0h24v24H0z"/> <path d="M3.609 1.814L13.792 12 3.61 22.186a.996.996 0 0 1-.61-.92V2.734a1 1 0 0 1 .609-.92zm10.89 10.893l2.302 2.302-10.937 6.333 8.635-8.635zm3.199-3.198l2.807 1.626a1 1 0 0 1 0 1.73l-2.808 1.626L15.206 12l2.492-2.491zM5.864 2.658L16.802 8.99l-2.303 2.303-8.635-8.635z"/> </g> </g>
</svg>